<svg id="Layer_1" data-name="Layer 1" xmlns="http://www.w3.org/2000/svg" viewBox="0 0 1200.14 1177.82"><defs><style>.cls-1{font-size:225.18px;fill:none;stroke:#fff;stroke-width:1.13px;font-family:AntiquaRoman, Antiqua Roman;}</style></defs><text class="cls-1" transform="translate(315.15 274.84) rotate(-30.8)">G</text><text class="cls-1" transform="translate(449.13 189.62) rotate(-7.71)">O</text><text class="cls-1" transform="matrix(0.98, 0.18, -0.18, 0.98, 627.95, 171.44)">L</text><text class="cls-1" transform="translate(709.89 179.81) rotate(26.1)">D</text><text class="cls-1" transform="translate(844.45 242) rotate(47.17)">M</text><text class="cls-1" transform="translate(952.75 361.81) rotate(66.06)">A</text><text class="cls-1" transform="translate(1002.88 465.11) rotate(83.89)">N</text><text class="cls-1" transform="matrix(-0.1, 1, -1, -0.1, 1013.09, 611.4)"> </text><text class="cls-1" transform="matrix(-0.25, 0.97, -0.97, -0.25, 1013.38, 639.87)">S</text><text class="cls-1" transform="translate(991.96 732.65) rotate(119.08)">A</text><text class="cls-1" transform="translate(948.81 818.96) rotate(133.1)">C</text><text class="cls-1" transform="matrix(-0.87, 0.49, -0.49, -0.87, 863.61, 912.78)">H</text><text class="cls-1" transform="matrix(-0.97, 0.24, -0.24, -0.97, 749.18, 975.83)">S</text><text class="cls-1" transform="matrix(-1, 0.09, -0.09, -1, 653.32, 996.99)"> </text><text class="cls-1" transform="translate(627.6 1007.83) rotate(-172.15)">G</text><text class="cls-1" transform="translate(469.73 990.67) rotate(-149.06)">O</text><text class="cls-1" transform="translate(318.78 893.13) rotate(-131.2)">L</text><text class="cls-1" transform="matrix(-0.43, -0.9, 0.9, -0.43, 260.08, 835.33)">D</text><text class="cls-1" transform="translate(193.7 702.83) rotate(-94.09)">M</text><text class="cls-1" transform="matrix(0.25, -0.97, 0.97, 0.25, 184.12, 541.58)">A</text><text class="cls-1" transform="translate(209.52 429.6) rotate(-57.46)">N</text><text class="cls-1" transform="translate(292.93 309.03) rotate(-45.55)"> </text></svg>